<svg xmlns="http://www.w3.org/2000/svg" viewBox="0 0 512 512" role="img" aria-label="黃燈灰董事長主題樂園圓形園區章">
  <defs>
    <radialGradient id="bg" cx="50%" cy="34%" r="68%">
      <stop offset="0" stop-color="#8fa6b1"/>
      <stop offset="1" stop-color="#536b73"/>
    </radialGradient>
  </defs>
  <circle cx="256" cy="256" r="232" fill="#f8f5ee"/>
  <circle cx="256" cy="256" r="212" fill="url(#bg)" stroke="#efd27d" stroke-width="18"/>
  <path d="M112 391c37-67 84-100 144-100s107 33 144 100" fill="#7f969e"/>
  <ellipse cx="256" cy="218" rx="106" ry="98" fill="#e8ecee"/>
  <ellipse cx="206" cy="222" rx="18" ry="24" fill="#334044"/>
  <ellipse cx="306" cy="222" rx="18" ry="24" fill="#334044"/>
  <path d="M235 262c15 16 27 24 42 0l-21 48z" fill="#c9805a"/>
  <path d="M96 394c-24-28-34-59-31-92M416 394c24-28 34-59 31-92" fill="none" stroke="#efd27d" stroke-width="13" stroke-linecap="round"/>
  <path d="M118 430h276" stroke="#efd27d" stroke-width="16" stroke-linecap="round"/>
  <text x="256" y="462" text-anchor="middle" font-family="'Microsoft JhengHei','Noto Sans TC',sans-serif" font-size="34" font-weight="800" fill="#f8f5ee">董事長</text>
</svg>
